# xmcd
# 
# Track frame offsets:
#     150
#     15379
#     49758
# 
# Disc length: 888
# 
# Revision: 0
# Processed by: cddbd v1.5.2PL0 Copyright (c) Steve Scherf et al.
# Submitted via: BonkEnc v1.0.6
# 
DISCID=18037603
DTITLE=To The Bridge - Cat Strut
DYEAR=0
DGENRE=Blues
TTITLE0=Funkaholik
TTITLE1=Blues Alone
TTITLE2=She Got It (The Girl Is Alright)
EXTD=
EXTT0=
EXTT1=
EXTT2=
PLAYORDER=
